<svg width="154" height="92" viewBox="0 0 154 92" fill="none" xmlns="http://www.w3.org/2000/svg">
<g clip-path="url(#clip0_306_958)">
<path d="M128.333 61.3333C131.166 61.3333 133.467 63.6236 133.467 66.4444C133.467 69.2652 131.166 71.5555 128.333 71.5555C125.5 71.5555 123.2 69.2652 123.2 66.4444C123.2 63.6236 125.5 61.3333 128.333 61.3333Z" fill="white"/>
<path d="M56.4667 61.3333H87.2667C90.0998 61.3333 92.4 63.6236 92.4 66.4444C92.4 69.2652 90.0998 71.5555 87.2667 71.5555H56.4667C53.6336 71.5555 51.3333 69.2652 51.3333 66.4444C51.3333 63.6236 53.6336 61.3333 56.4667 61.3333Z" fill="white"/>
<path d="M46.2 30.6667C49.0331 30.6667 51.3333 32.957 51.3333 35.7778V46C51.3333 48.8208 49.0331 51.1111 46.2 51.1111C43.3669 51.1111 41.0667 48.8208 41.0667 46V35.7778C41.0667 32.957 43.3669 30.6667 46.2 30.6667Z" fill="white"/>
<path d="M20.5379 35.5146C20.6771 27.1727 27.5224 20.4445 35.9333 20.4445C39.8757 20.4445 43.4742 21.9226 46.2 24.3519C48.9258 21.9226 52.5243 20.4445 56.4667 20.4445C64.8776 20.4445 71.7229 27.1727 71.8621 35.5146C71.8662 35.6014 71.8667 35.6899 71.8667 35.7778V46C71.8667 48.8208 69.5664 51.1111 66.7333 51.1111C63.9002 51.1111 61.6 48.8208 61.6 46V35.7778C61.6 32.957 59.2998 30.6667 56.4667 30.6667C53.6336 30.6667 51.3333 32.957 51.3333 35.7778V46C51.3333 48.8208 49.0331 51.1111 46.2 51.1111C43.3669 51.1111 41.0667 48.8208 41.0667 46V35.7778C41.0667 32.957 38.7664 30.6667 35.9333 30.6667C33.1002 30.6667 30.8 32.957 30.8 35.7778V46C30.8 48.8208 28.4998 51.1111 25.6667 51.1111C22.8336 51.1111 20.5333 48.8208 20.5333 46V35.7778C20.5333 35.6899 20.5354 35.602 20.5379 35.5146Z" fill="white"/>
<path d="M25.6667 61.3333H35.9333C38.7664 61.3333 41.0667 63.6236 41.0667 66.4444C41.0667 69.2652 38.7664 71.5555 35.9333 71.5555H25.6667C22.8336 71.5555 20.5333 69.2652 20.5333 66.4444C20.5333 63.6236 22.8336 61.3333 25.6667 61.3333Z" fill="white"/>
<path d="M10.2667 61.3333H0V25.5556C0 11.4509 11.5007 0 25.6667 0H128.333C142.499 0 154 11.4509 154 25.5556V66.4445C154 80.5491 142.499 92 128.333 92H25.6667C11.5007 92 0 80.5491 0 66.4445V56.2222H10.2667V66.4445C10.2667 74.9069 17.1674 81.7778 25.6667 81.7778H128.333C136.833 81.7778 143.733 74.9069 143.733 66.4445V25.5556C143.733 17.0931 136.833 10.2222 128.333 10.2222H25.6667C17.1674 10.2222 10.2667 17.0931 10.2667 25.5556V61.3333Z" fill="white"/>
<g clip-path="url(#clip1_306_958)">
<path fill-rule="evenodd" clip-rule="evenodd" d="M112.933 40.9055V71.4726H102.704V40.9055H112.933ZM92.4749 40.9055V51.0945H82.2457V40.9055H92.4749ZM133.392 40.9055V51.0945H123.163V40.9055H133.392ZM133.392 20.5274V30.7165H82.2457V20.5274H133.392Z" fill="white"/>
</g>
</g>
<defs>
<clipPath id="clip0_306_958">
<rect width="154" height="92" fill="white"/>
</clipPath>
<clipPath id="clip1_306_958">
<rect width="51.146" height="50.9452" fill="white" transform="translate(82.2457 20.5274)"/>
</clipPath>
</defs>
</svg>
